<svg xmlns="http://www.w3.org/2000/svg" width="745" height="469" viewBox="0 0 745 469">
  <g fill="none" fill-rule="evenodd">
    <rect width="745" height="469" fill="#FFF"/>
    <g stroke="#000" transform="translate(8 16)">
      <polygon fill="#FFF" fill-rule="nonzero" stroke-width="3" points="250 433.51 0 .5 500 .5"/>
      <line x1="35.22" x2="464.78" y1="61.5" y2="61.5" stroke-width="3"/>
      <line x1="70.86" x2="428.69" y1="124" y2="124" stroke-width="3"/>
      <line x1="107.39" x2="392.61" y1="186.51" y2="186.51" stroke-width="3"/>
      <line x1="143.47" x2="356.52" y1="249.01" y2="249.01" stroke-width="3"/>
      <line x1="179.56" x2="320.44" y1="311.51" y2="311.51" stroke-width="3"/>
      <line x1="214.83" x2="284.35" y1="374.01" y2="374.01" stroke-width="3"/>
      <line x1="308" x2="308" y1="87.5" y2="88.17" stroke-width="2"/>
      <line x1="464.78" x2="470.78" y1="61.5" y2="61.5"/>
      <line x1="482.79" x2="717.08" y1="61.5" y2="61.5" stroke-dasharray="12.015 12.015"/>
      <line x1="718.09" x2="724.09" y1="61.5" y2="61.5"/>
      <line x1="428.69" x2="434.69" y1="124" y2="124"/>
      <line x1="447.04" x2="712.49" y1="124" y2="124" stroke-dasharray="12.347 12.347"/>
      <line x1="718.66" x2="724.66" y1="124" y2="124"/>
      <line x1="392.61" x2="398.61" y1="186.51" y2="186.51"/>
      <line x1="410.46" x2="712.74" y1="186.51" y2="186.51" stroke-dasharray="11.854 11.854"/>
      <line x1="718.66" x2="724.66" y1="186.51" y2="186.51"/>
      <line x1="356.52" x2="362.52" y1="249.01" y2="249.01"/>
      <line x1="374.8" x2="712.52" y1="249.01" y2="249.01" stroke-dasharray="12.281 12.281"/>
      <line x1="718.66" x2="724.66" y1="249.01" y2="249.01"/>
      <line x1="320.44" x2="326.44" y1="311.51" y2="311.51"/>
      <line x1="338.32" x2="712.72" y1="311.51" y2="311.51" stroke-dasharray="11.886 11.886"/>
      <line x1="718.66" x2="724.66" y1="311.51" y2="311.51"/>
      <line x1="284.35" x2="290.35" y1="374.01" y2="374.01"/>
      <line x1="302.59" x2="712.55" y1="374.01" y2="374.01" stroke-dasharray="12.238 12.238"/>
      <line x1="718.66" x2="724.66" y1="374.01" y2="374.01"/>
      <line x1="250" x2="256" y1="435.51" y2="435.51"/>
      <line x1="267.97" x2="717.1" y1="435.51" y2="435.51" stroke-dasharray="11.977 11.977"/>
      <line x1="723.09" x2="729.09" y1="435.51" y2="435.51"/>
      <line x1="500" x2="506" y1=".5" y2=".5"/>
      <line x1="518.51" x2="712.41" y1=".5" y2=".5" stroke-dasharray="12.51 12.51"/>
      <line x1="717.66" x2="723.66" y1=".5" y2=".5"/>
    </g>
    <g fill="#000" fill-rule="nonzero" font-family="OpenSans-ExtraBold, Open Sans" font-size="24" font-weight="600" transform="translate(544.26 29.57)">
      <text>
        <tspan x="60.63" y="400.4">UTILITIES</tspan>
      </text>
      <text>
        <tspan x="0" y="338">COMPONENTS</tspan>
      </text>
      <text>
        <tspan x="93.18" y="87.4">TOOLS</tspan>
      </text>
      <text>
        <tspan x="69.13" y="149.8">GENERIC</tspan>
      </text>
      <text>
        <tspan x="48.7" y="212.2">ELEMENTS</tspan>
      </text>
      <text>
        <tspan x="72.91" y="274.6">OBJECTS</tspan>
      </text>
      <text>
        <tspan x="61.02" y="26">SETTINGS</tspan>
      </text>
    </g>
  </g>
</svg>
